# xmcd
#
# Track frame offsets:
#	150
#	14747
#	32118
#	50772
#	64614
#	87185
#	105865
#	121537
#	144189
#	161731
#	177740
#
# Disc length: 2490 seconds
# Revision: 0
# Processed by: cddbd v1.5.2PL0 Copyright (c) Steve Scherf et al.
# Submitted via: dBpowerAMP V12.0
#
DISCID=8c09b80b
DTITLE=Adele Morgan - This One Life
DYEAR=2009
DGENRE=Country
TTITLE0=I Wanna Live Like That
TTITLE1=Life Made Me This Way
TTITLE2=Get Away
TTITLE3=I Won't Back Down
TTITLE4=First Stone
TTITLE5=So I Love You, Jesus
TTITLE6=Because Of Your Grace
TTITLE7=Bring Me Back
TTITLE8=Bright New World
TTITLE9=We The People
TTITLE10=Alaska Flag Song
EXTD=
EXTT0=
EXTT1=
EXTT2=
EXTT3=
EXTT4=
EXTT5=
EXTT6=
EXTT7=
EXTT8=
EXTT9=
EXTT10=
PLAYORDER=
